<svg xmlns="http://www.w3.org/2000/svg" viewBox="0 0 45 261"><title>phraseImg</title><path d="M11.13,1.16a7.82,7.82,0,0,1,3,.78c1.19.6,1.76,1.16,1.76,1.79a1.34,1.34,0,0,1-.25.72,3.5,3.5,0,0,0-.45,1.79c-.06.54-.11,2.29-.17,3.72a20.43,20.43,0,0,1,6.51,1.32,2.74,2.74,0,0,1,2,2.65c0,1.16-.49,1.92-1.19,1.92-.4,0-.56-.11-1.27-.9a15.36,15.36,0,0,0-6-4.21V15c0,2.27,0,2.27.08,5.48,0,.46,0,.84,0,1.3a4.94,4.94,0,0,1-.16,1.62,1,1,0,0,1-.94.67,1.92,1.92,0,0,1-1.46-.94,4.15,4.15,0,0,1-1-2.19,2.7,2.7,0,0,1,.24-1.08c.46-1.32.62-4.45.62-11.36,0-3.89-.08-4.92-.49-5.65a3.26,3.26,0,0,0-1.86-1.4A1.92,1.92,0,0,1,11.13,1.16Z"/><path d="M4.06,46.25a50.29,50.29,0,0,0,10.07-8c2.89-2.91,4.53-5.07,4.53-6,0-.57-.62-1.27-1.61-1.79a3.16,3.16,0,0,1,.86-.1,5.45,5.45,0,0,1,2.73.91c1.24.73,2,1.54,2,2.16s-.14.65-1.08,1.33c-.11.08-.11.08-1.76,1.64-1.89,1.76-1.89,1.76-3.8,3.4a6.65,6.65,0,0,1,1.86,1.6c.24.37.27.64.3,2.64,0,1.24,0,1.59.18,6.72,0,.38,0,.76,0,1,0,1.11-.35,1.64-1.11,1.64-1,0-2.48-1.64-2.48-2.78a2.47,2.47,0,0,1,.16-.86,31.26,31.26,0,0,0,.6-7c0-1.38-.08-1.76-.46-2.27a44.36,44.36,0,0,1-5.78,3.83A32.69,32.69,0,0,1,4.2,46.54Z"/><path d="M26.82,65.47a25.94,25.94,0,0,1-5.7,6.83,39.31,39.31,0,0,1-7.85,5,3.76,3.76,0,0,0-1.33,1,1.17,1.17,0,0,1-.81.4c-.83,0-2.53-2.16-2.53-3.24,0-.18,0-.18.16-.64C9,74.17,9,73.65,9,70.66s-.11-7.51-.19-8.72c-.14-1.86-.62-2.51-2.29-3a1.78,1.78,0,0,1,1.13-.36,7.41,7.41,0,0,1,3.18,1c1.14.56,1.65,1.13,1.65,1.8a1.5,1.5,0,0,1-.16.68,6.52,6.52,0,0,0-.43,1.89c-.25,2.1-.52,7.42-.52,9.82v.92a38.8,38.8,0,0,0,9.13-4.48,35.61,35.61,0,0,0,6-4.88Z"/><path d="M10.78,88.78c3.32,1.32,4.48,2.29,4.48,3.72,0,1-.64,1.92-1.37,1.92-.41,0-.65-.27-.87-.92A10.47,10.47,0,0,0,10.62,89Zm2.89,14.3A28.22,28.22,0,0,0,20.85,95c1.41-2.27,2.51-4.83,2.51-5.81,0-.67-.38-1.1-1.46-1.64a1.1,1.1,0,0,1,.63-.16,6,6,0,0,1,3.18,1.26c.65.46.95.87.95,1.27s-.06.41-.41.81a12.86,12.86,0,0,0-1,1.59,28.66,28.66,0,0,1-4,5.81,20.42,20.42,0,0,1-7.37,5.26Zm2-15.47c2.89,1,4.21,2.14,4.21,3.54,0,1-.73,2-1.48,2a.73.73,0,0,1-.65-.43,8.3,8.3,0,0,1-.35-1.19,7.7,7.7,0,0,0-1.92-3.7Z"/><path d="M11.13,111.08a7.82,7.82,0,0,1,3,.78c1.19.6,1.76,1.16,1.76,1.78a1.34,1.34,0,0,1-.25.73,3.49,3.49,0,0,0-.45,1.78c-.06.54-.11,2.3-.17,3.73a20.43,20.43,0,0,1,6.51,1.32,2.74,2.74,0,0,1,2,2.65c0,1.16-.49,1.91-1.19,1.91-.4,0-.56-.1-1.27-.89a15.36,15.36,0,0,0-6-4.21v4.24c0,2.27,0,2.27.08,5.48,0,.46,0,.84,0,1.3a4.94,4.94,0,0,1-.16,1.62A1,1,0,0,1,14,134a1.9,1.9,0,0,1-1.46-.95,4.1,4.1,0,0,1-1-2.18,2.7,2.7,0,0,1,.24-1.08c.46-1.32.62-4.45.62-11.37,0-3.88-.08-4.91-.49-5.64a3.26,3.26,0,0,0-1.86-1.4A1.84,1.84,0,0,1,11.13,111.08Z"/><path d="M5.49,150c.33,0,.73-.22,1.35-.76.46-.4.49-.43,2.19-2.1,2.08-2.08,2.75-2.51,3.83-2.51.92,0,1.19.13,4.05,2.24,4.32,3.18,7.23,5,9.23,5.83a2.25,2.25,0,0,1,1.11,1,5.44,5.44,0,0,1,.7,2.53c0,.76-.43,1.33-1,1.33s-1.27-.38-2.67-1.46c-2.59-2-3.78-3.11-8.88-8.15-1.81-1.79-2.11-2-2.7-2s-.95.43-1.67,1.54a27.52,27.52,0,0,0-2.19,4.13,3.48,3.48,0,0,1-.43.94,1.19,1.19,0,0,1-1,.51,4.16,4.16,0,0,1-2.75-1.59A3.83,3.83,0,0,1,3.39,149a3.7,3.7,0,0,1,0-.49A3.36,3.36,0,0,0,5.49,150Zm20-7.37a2.9,2.9,0,0,1-2.89,2.91,2.92,2.92,0,1,1,0-5.83A2.91,2.91,0,0,1,25.44,142.67Zm-4.86,0a2,2,0,1,0,2-2A1.93,1.93,0,0,0,20.58,142.67Z"/><path d="M17.1,178.6c0,5.86-.33,7.26-1.62,7.26a.89.89,0,0,1-.86-.7c-.35-.86-.44-2-.44-5.56,0-1.56,0-3.18.09-9.91v-.78c0-2.56-.09-3.24-.44-3.83A2.63,2.63,0,0,0,12.11,164a.8.8,0,0,1,.59-.46,1.75,1.75,0,0,1,.49-.08,8.27,8.27,0,0,1,3,.78c1.07.46,1.51.92,1.51,1.56,0,.3,0,.41-.33.95s-.32,1.56-.32,6.1Z"/><path d="M2.71,210.08a29.33,29.33,0,0,0,5.67-6.5c1.43-2.21,2.21-3.91,2.21-4.75,0-.62-.51-1.19-1.64-1.73a1.83,1.83,0,0,1,.81-.21,5.7,5.7,0,0,1,3,1.18c1.13.76,1.67,1.38,1.67,1.92a1.09,1.09,0,0,1-.51.86,4.4,4.4,0,0,0-1,1c-2.86,3.91-6.61,7-10.12,8.42ZM17.56,197a22.55,22.55,0,0,1,7,4.92c1.7,1.83,2.26,2.91,2.26,4.37,0,1.67-.75,2.94-1.72,2.94-.62,0-.81-.24-1.22-1.48a23.11,23.11,0,0,0-6.59-10.5Zm9-2.56a2.9,2.9,0,0,1-2.89,2.91,2.92,2.92,0,1,1,0-5.83A2.91,2.91,0,0,1,26.52,194.43Zm-4.86,0a2,2,0,1,0,1.95-2A1.94,1.94,0,0,0,21.66,194.43Z"/><path d="M17.1,231.17c0,5.86-.33,7.26-1.62,7.26a.89.89,0,0,1-.86-.7c-.35-.86-.44-2-.44-5.56,0-1.56,0-3.18.09-9.9v-.79c0-2.56-.09-3.24-.44-3.83a2.63,2.63,0,0,0-1.72-1.13.8.8,0,0,1,.59-.46,1.75,1.75,0,0,1,.49-.08,8.27,8.27,0,0,1,3,.78c1.07.46,1.51.92,1.51,1.56,0,.3,0,.41-.33,1s-.32,1.56-.32,6.1Z"/><path d="M38.42,7.45c-.92,0-1,.1-1,1h-.26V5.1h.26c0,.93.12,1,1,1h5.92a2.09,2.09,0,0,0-.58-1.71A3.48,3.48,0,0,0,42,3.82l0-.36,2.54.19V9.94l-2.54.19,0-.36a3.07,3.07,0,0,0,1.8-.69,2.2,2.2,0,0,0,.5-1.63Z"/><path d="M41.78,11.47a2.57,2.57,0,0,1,.71,1.87,2.5,2.5,0,0,1-2.74,2.59,3,3,0,0,1-2-.66,2.66,2.66,0,0,1-.81-2,2.55,2.55,0,0,1,.76-1.88,3,3,0,0,1,2-.69A3.08,3.08,0,0,1,41.78,11.47Zm-4.59,1.86c0,.87.78,1.26,2.52,1.26s2.55-.4,2.55-1.27a1,1,0,0,0-.58-.93,4.42,4.42,0,0,0-1.94-.32C38,12.07,37.19,12.47,37.19,13.33Z"/><path d="M42.47,18.69c-.6,0-1.3-.06-1.94-.06H38.36c-.89,0-1,.07-1,.78h-.24V16.63h.24c0,.71.11.78,1,.78h2.77c.89,0,1-.05,1-.75h.24Zm2.3-.66a.72.72,0,1,1-.72-.72A.72.72,0,0,1,44.77,18Z"/><path d="M37.36,20c0,.73.09.79,1,.79h5c.88,0,1-.07,1-.78h.23L44.71,22C44,22,43.33,22,42.66,22h-4.3c-.91,0-1,.06-1,.79h-.24V20Z"/><path d="M39.94,24.76a3.91,3.91,0,0,0-1.59.26,1.44,1.44,0,0,0-1,1.36A1.86,1.86,0,0,0,38.5,28l-.16.25A2.26,2.26,0,0,1,37,26.08a2.5,2.5,0,0,1,2.74-2.61A2.49,2.49,0,0,1,42.49,26a2,2,0,0,1-1.32,2.07,3.66,3.66,0,0,1-1.23.18ZM40.23,27a3.9,3.9,0,0,0,1.25-.17c.53-.19.78-.47.78-.86s-.3-.76-.88-1a4.23,4.23,0,0,0-1.15-.21Z"/><path d="M38.68,30.82a2.76,2.76,0,0,0-.9.1.54.54,0,0,0-.37.49,1.19,1.19,0,0,0,.31.7l-.25.14a2.05,2.05,0,0,1-.5-1.37,1.2,1.2,0,0,1,.55-1.13,3.07,3.07,0,0,1,1.38-.15H42V29h.3a1.06,1.06,0,0,0,.53.95,2.71,2.71,0,0,0,1.07.37l0,.5c-.41,0-.72,0-1.63,0V32H42V30.82Z"/><path d="M38.41,38.13c-.91,0-1,.09-1,1h-.26V35.93h.26c0,.82.12.9,1,.9H43.3c.91,0,1-.08,1-.86h.26v3c0,2-.63,2.93-2.08,2.93a1.9,1.9,0,0,1-2-1.28,6.43,6.43,0,0,1-.26-2v-.49Zm2.15.52A2,2,0,0,0,41,40a2.06,2.06,0,0,0,1.49.49c1.23,0,1.85-.59,1.85-1.75v-.64H40.56Z"/><path d="M37.15,47.64c-.07-.59-.12-1.12-.12-1.38s.15-.42.76-.47A2.23,2.23,0,0,1,37,44.08a1.4,1.4,0,0,1,1.47-1.54c.86,0,1.39.53,1.6,1.6a12.16,12.16,0,0,1,.19,1.64h.65c1.06,0,1.37-.18,1.37-.78a.69.69,0,0,0-.34-.67,1.51,1.51,0,0,0-.71-.16c-.36,0-.49-.19-.49-.61s.16-.7.46-.7a1.15,1.15,0,0,1,.93.62,3.06,3.06,0,0,1,.38,1.64,2.13,2.13,0,0,1-.41,1.48,1.58,1.58,0,0,1-1.24.39H38.56c-1.1,0-1.16,0-1.17.68ZM40,45.78c-.11-1.45-.48-2-1.41-2-.71,0-1.18.32-1.18.81a1.09,1.09,0,0,0,.66,1,2.56,2.56,0,0,0,1.16.18Z"/><path d="M41.7,50a1.92,1.92,0,0,1,.79,1.62c0,1.34-1,2.1-2.62,2.1a3.48,3.48,0,0,1-2.15-.62A2.16,2.16,0,0,1,37,51.43,1.87,1.87,0,0,1,37.52,50H36.13c-.89,0-1,.06-1,.82h-.24V48.07h.24c0,.7.11.76,1,.76h5c.85,0,1-.09,1-.76h.24l.13,2Zm-3.8.26a1.06,1.06,0,0,0-.64.92c0,.81.82,1.21,2.47,1.21s2.44-.38,2.44-1.09S41.2,50,39.6,50A4.11,4.11,0,0,0,37.9,50.28Z"/><path d="M39.94,56a3.91,3.91,0,0,0-1.59.26,1.44,1.44,0,0,0-1,1.36,1.86,1.86,0,0,0,1.14,1.65l-.16.25A2.26,2.26,0,0,1,37,57.3a2.5,2.5,0,0,1,2.74-2.61,2.49,2.49,0,0,1,2.78,2.51,2,2,0,0,1-1.32,2.07,3.66,3.66,0,0,1-1.23.18Zm.29,2.22A3.9,3.9,0,0,0,41.48,58c.53-.19.78-.47.78-.86s-.3-.76-.88-1A4.23,4.23,0,0,0,40.23,56Z"/><path d="M42.47,62l-.81,0h-.3a1.78,1.78,0,0,1,1.13,1.48.79.79,0,0,1-.76.85.64.64,0,0,1-.61-.72.41.41,0,0,1,.32-.47c.28-.08.35-.13.35-.29v0c0-.19-.18-.39-.47-.56a2.25,2.25,0,0,0-1.11-.24H38.36c-.9,0-1,.06-1,.8h-.24V60.12h.24c0,.69.11.76,1,.76h2.77c.85,0,1-.09,1-.72h.24Z"/></svg>